<svg width="110" height="29" viewBox="0 0 110 29" fill="none" xmlns="http://www.w3.org/2000/svg"><path fill-rule="evenodd" clip-rule="evenodd" d="M9.14435 22.8943C7.22595 22.8943 5.58467 22.6082 4.22047 22.0358C2.85627 21.4634 1.82248 20.7109 1.11906 19.7782C0.415649 18.8454 0.0426312 17.8279 0 16.7256C0 16.556 0.0639459 16.4023 0.19184 16.2645C0.319733 16.1267 0.479598 16.0578 0.671438 16.0578H3.58101C3.81548 16.0578 4.00731 16.1108 4.15652 16.2168C4.30573 16.3228 4.44428 16.4712 4.57218 16.662C4.78533 17.3827 5.27026 17.9869 6.02696 18.4745C6.78366 18.962 7.82278 19.2058 9.14435 19.2058C10.6364 19.2058 11.7608 18.9567 12.5175 18.4586C13.2742 17.9604 13.6526 17.2767 13.6526 16.4076C13.6526 15.8352 13.4607 15.3583 13.0771 14.9767C12.6934 14.5951 12.1125 14.2613 11.3345 13.9751C10.5565 13.6889 9.40015 13.3444 7.86542 12.9417C5.35018 12.3481 3.50641 11.5638 2.33405 10.5886C1.16169 9.61349 0.575519 8.21441 0.575519 6.39133C0.575519 5.16182 0.916563 4.06481 1.59866 3.10027C2.28076 2.13574 3.25594 1.3779 4.52422 0.82674C5.7925 0.275577 7.26858 0 8.95251 0C10.7217 0 12.2511 0.307374 13.5407 0.922133C14.8303 1.53689 15.8108 2.30533 16.4822 3.22746C17.1537 4.1496 17.5107 5.06643 17.5533 5.97796C17.5533 6.14755 17.4894 6.30124 17.3615 6.43903C17.2336 6.57682 17.0737 6.64572 16.8819 6.64572H13.8444C13.3755 6.64572 13.0557 6.45493 12.8852 6.07336C12.7786 5.395 12.363 4.82795 11.6383 4.37218C10.9135 3.91641 10.0183 3.68853 8.95251 3.68853C7.78015 3.68853 6.85827 3.91111 6.18683 4.35628C5.51538 4.80145 5.17967 5.448 5.17967 6.29594C5.17967 6.8683 5.35019 7.34526 5.69124 7.72684C6.03229 8.10841 6.56517 8.44228 7.2899 8.72846C8.01463 9.01464 9.06974 9.33792 10.4553 9.69829C12.3523 10.1223 13.8604 10.5992 14.9795 11.1292C16.0985 11.6592 16.9245 12.3269 17.4574 13.1324C17.9903 13.938 18.2567 14.9661 18.2567 16.2168C18.2567 17.5947 17.8784 18.7871 17.1217 19.7941C16.365 20.801 15.2992 21.5694 13.9244 22.0994C12.5495 22.6294 10.9562 22.8943 9.14435 22.8943ZM20.6587 4.33243C20.4456 4.33243 20.2644 4.25824 20.1152 4.10985C19.966 3.96146 19.8914 3.78128 19.8914 3.56929V1.24806C19.8914 1.01487 19.966 0.824091 20.1152 0.675701C20.2644 0.527311 20.4456 0.453117 20.6587 0.453117H23.6003C23.8347 0.453117 24.0266 0.527311 24.1758 0.675701C24.325 0.824091 24.3996 1.01487 24.3996 1.24806V3.56929C24.3996 3.78128 24.3197 3.96146 24.1598 4.10985C23.9999 4.25824 23.8134 4.33243 23.6003 4.33243H20.6587ZM20.7866 22.5764C20.5735 22.5764 20.3923 22.5022 20.2431 22.3538C20.0939 22.2054 20.0193 22.0252 20.0193 21.8132V6.8047C20.0193 6.57152 20.0939 6.38603 20.2431 6.24824C20.3923 6.11045 20.5735 6.04156 20.7866 6.04156H23.5043C23.7175 6.04156 23.8987 6.11575 24.0479 6.26414C24.1971 6.41253 24.2717 6.59272 24.2717 6.8047V21.8132C24.2717 22.0252 24.1971 22.2054 24.0479 22.3538C23.8987 22.5022 23.7175 22.5764 23.5043 22.5764H20.7866ZM27.2612 22.5764C27.048 22.5764 26.8669 22.5022 26.7177 22.3538C26.5684 22.2054 26.4938 22.0252 26.4938 21.8132V6.8047C26.4938 6.57152 26.5684 6.38603 26.7177 6.24824C26.8669 6.11045 27.048 6.04156 27.2612 6.04156H29.915C30.1495 6.04156 30.336 6.11045 30.4745 6.24824C30.6131 6.38603 30.6823 6.57152 30.6823 6.8047V8.10841C31.9826 6.51852 33.7624 5.72358 36.0219 5.72358C37.9829 5.72358 39.5389 6.35953 40.69 7.63144C41.841 8.90336 42.4165 10.6522 42.4165 12.8781V21.8132C42.4165 22.0252 42.3473 22.2054 42.2087 22.3538C42.0701 22.5022 41.8836 22.5764 41.6492 22.5764H38.7716C38.5584 22.5764 38.3772 22.5022 38.228 22.3538C38.0788 22.2054 38.0042 22.0252 38.0042 21.8132V13.0688C38.0042 11.8393 37.7005 10.8801 37.093 10.1912C36.4855 9.5022 35.6169 9.15773 34.4872 9.15773C33.4001 9.15773 32.5261 9.5075 31.8654 10.2071C31.2046 10.9066 30.8742 11.8605 30.8742 13.0688V21.8132C30.8742 22.0252 30.8049 22.2054 30.6664 22.3538C30.5278 22.5022 30.3413 22.5764 30.1068 22.5764H27.2612ZM49.8063 22.8943C48.7192 22.8943 47.7228 22.677 46.8168 22.2425C45.9109 21.8079 45.1969 21.2197 44.6746 20.4777C44.1524 19.7358 43.8913 18.9196 43.8913 18.0293C43.8913 16.5878 44.4775 15.4219 45.6498 14.5315C46.8222 13.6412 48.4315 13.0371 50.4778 12.7191L54.8581 12.0831V11.4154C54.8581 10.5038 54.6236 9.81489 54.1547 9.34852C53.6858 8.88215 52.9397 8.64897 51.9166 8.64897C51.2132 8.64897 50.6483 8.77616 50.222 9.03054C49.7957 9.28492 49.4493 9.5446 49.1829 9.80958L48.6553 10.3342C48.57 10.5886 48.4102 10.7158 48.1757 10.7158H45.6818C45.49 10.7158 45.3248 10.6522 45.1862 10.525C45.0477 10.3978 44.9784 10.2283 44.9784 10.0163C44.9997 9.48631 45.2608 8.88745 45.7617 8.2197C46.2626 7.55195 47.0353 6.96899 48.0798 6.47083C49.1243 5.97266 50.4138 5.72358 51.9486 5.72358C54.4638 5.72358 56.2969 6.28534 57.448 7.40886C58.599 8.53238 59.1745 10.0057 59.1745 11.8287V21.8132C59.1745 22.0252 59.1052 22.2054 58.9667 22.3538C58.8281 22.5022 58.6416 22.5764 58.4072 22.5764H55.7534C55.5402 22.5764 55.359 22.5022 55.2098 22.3538C55.0606 22.2054 54.986 22.0252 54.986 21.8132V20.5731C54.5171 21.2515 53.8563 21.8079 53.0037 22.2425C52.151 22.677 51.0853 22.8943 49.8063 22.8943ZM50.8934 19.8418C52.0658 19.8418 53.025 19.4602 53.771 18.697C54.5171 17.9339 54.8901 16.8316 54.8901 15.3901V14.7541L51.6928 15.2629C49.2415 15.6445 48.0158 16.4606 48.0158 17.7113C48.0158 18.3897 48.2983 18.9143 48.8631 19.2853C49.428 19.6563 50.1048 19.8418 50.8934 19.8418ZM61.5645 22.5764C61.3727 22.5764 61.2075 22.5075 61.0689 22.3697C60.9304 22.2319 60.8611 22.0676 60.8611 21.8768C60.8611 21.686 60.925 21.5058 61.0529 21.3362L66.5204 14.0864L61.4686 7.28167C61.3407 7.11208 61.2767 6.9319 61.2767 6.74111C61.2767 6.55032 61.346 6.38603 61.4846 6.24824C61.6231 6.11045 61.7883 6.04156 61.9802 6.04156H64.7938C65.0283 6.04156 65.2041 6.08926 65.3214 6.18465C65.4386 6.28004 65.5612 6.41253 65.6891 6.58212L69.2701 11.32L72.8191 6.58212C72.8404 6.56092 72.9203 6.46553 73.0589 6.29594C73.1974 6.12635 73.4159 6.04156 73.7143 6.04156H76.4321C76.6239 6.04156 76.7838 6.11045 76.9117 6.24824C77.0396 6.38603 77.1035 6.53972 77.1035 6.70931C77.1035 6.9213 77.0396 7.11208 76.9117 7.28167L71.796 14.1182L77.2953 21.3362C77.4232 21.5058 77.4872 21.686 77.4872 21.8768C77.4872 22.0676 77.4179 22.2319 77.2794 22.3697C77.1408 22.5075 76.9756 22.5764 76.7838 22.5764H73.8422C73.5012 22.5764 73.2134 22.4068 72.979 22.0676L69.1422 17.0436L65.2734 22.0676C65.0389 22.4068 64.7512 22.5764 64.4101 22.5764H61.5645ZM82.3391 28.6179C82.1686 28.6179 82.0141 28.5543 81.8755 28.4271C81.737 28.2999 81.6677 28.1515 81.6677 27.982C81.6677 27.8336 81.7103 27.664 81.7956 27.4732L84.3215 21.5906L78.1826 7.18628C78.0974 6.99549 78.0547 6.8471 78.0547 6.74111C78.076 6.55032 78.1506 6.38603 78.2785 6.24824C78.4064 6.11045 78.5663 6.04156 78.7581 6.04156H81.4119C81.7956 6.04156 82.0727 6.24294 82.2432 6.64572L86.4957 17.0118L90.812 6.64572C91.0252 6.24294 91.3236 6.04156 91.7073 6.04156H94.2971C94.489 6.04156 94.6488 6.10515 94.7767 6.23235C94.9046 6.35954 94.9686 6.50792 94.9686 6.67751C94.9686 6.8259 94.9259 6.99549 94.8407 7.18628L85.7923 28.0138C85.6217 28.4165 85.3233 28.6179 84.897 28.6179H82.3391ZM102.55 22.8943C100.93 22.8943 99.5767 22.6506 98.4896 22.163C97.4025 21.6754 96.5979 21.1084 96.0756 20.4618C95.5534 19.8153 95.2923 19.2588 95.2923 18.7924C95.2923 18.5804 95.3616 18.4109 95.5001 18.2837C95.6387 18.1565 95.8039 18.0929 95.9957 18.0929H98.6175C98.788 18.0929 98.9373 18.1777 99.0651 18.3473C99.1717 18.4321 99.4115 18.6334 99.7845 18.9514C100.158 19.2694 100.584 19.5185 101.063 19.6987C101.543 19.8789 102.071 19.9689 102.646 19.9689C103.499 19.9689 104.192 19.8047 104.724 19.4761C105.257 19.1475 105.524 18.6758 105.524 18.0611C105.524 17.6371 105.401 17.2926 105.156 17.0277C104.911 16.7627 104.474 16.5189 103.845 16.2963C103.216 16.0737 102.273 15.8246 101.016 15.5491C99.2037 15.1675 97.8662 14.5845 97.0029 13.8002C96.1396 13.0158 95.708 11.9771 95.708 10.684C95.708 9.83608 95.9637 9.03584 96.4753 8.2833C96.9869 7.53075 97.7489 6.916 98.7614 6.43903C99.7739 5.96206 100.984 5.72358 102.39 5.72358C103.84 5.72358 105.087 5.95146 106.131 6.40723C107.176 6.863 107.97 7.40886 108.513 8.04481C109.057 8.68077 109.329 9.24252 109.329 9.73009C109.329 9.92088 109.259 10.0852 109.121 10.223C108.982 10.3607 108.817 10.4296 108.625 10.4296H106.227C105.993 10.4296 105.812 10.3448 105.684 10.1753C105.534 10.0693 105.295 9.87318 104.964 9.587C104.634 9.30082 104.266 9.07294 103.861 8.90335C103.456 8.73376 102.966 8.64897 102.39 8.64897C101.602 8.64897 100.994 8.81855 100.568 9.15773C100.142 9.49691 99.9284 9.94207 99.9284 10.4932C99.9284 10.8748 100.03 11.1928 100.232 11.4472C100.435 11.7015 100.845 11.94 101.463 12.1626C102.081 12.3852 103.009 12.6131 104.245 12.8463C108.082 13.5882 110 15.2523 110 17.8385C110 19.3436 109.345 20.5625 108.034 21.4952C106.723 22.428 104.895 22.8943 102.55 22.8943Z" fill="#FFFFFF"/>
</svg>
